<svg width="24" height="22" viewBox="0 0 24 22" fill="none" xmlns="http://www.w3.org/2000/svg">
<path d="M23.4901 19.7899C23.8801 20.5199 23.6101 21.4299 22.8801 21.8199C22.6601 21.9399 22.4201 21.9999 22.1701 21.9999H1.84009C1.01009 21.9999 0.340088 21.3299 0.340088 20.4999C0.340088 20.2499 0.400088 20.0099 0.520088 19.7899L10.6801 0.849904C11.0701 0.119904 11.9801 -0.150096 12.7101 0.239904C12.9701 0.379904 13.1801 0.589904 13.3201 0.849904L23.4901 19.7899ZM12.4401 1.3199C12.3901 1.2299 12.3201 1.1599 12.2401 1.1199C12.0001 0.989904 11.6901 1.0799 11.5601 1.3199L1.40009 20.2599C1.36009 20.3299 1.34009 20.4099 1.34009 20.4999C1.34009 20.7799 1.56009 20.9999 1.84009 20.9999H22.1701C22.2501 20.9999 22.3301 20.9799 22.4101 20.9399C22.6501 20.8099 22.7401 20.5099 22.6101 20.2599L12.4401 1.3199ZM11.9601 5.9999C11.3801 6.0199 10.9201 6.5099 10.9401 7.0999L11.2301 14.5199C11.2401 14.7899 11.4601 14.9999 11.7301 14.9999H12.2701C12.5401 14.9999 12.7601 14.7899 12.7701 14.5199L13.0601 7.0999C13.0601 7.0899 13.0601 7.0699 13.0601 7.0599C13.0601 6.4799 12.5901 5.9999 12.0001 5.9999C11.9901 5.9999 11.9701 5.9999 11.9601 5.9999ZM11.0001 17.9999C11.0001 18.5499 11.4501 18.9999 12.0001 18.9999C12.5501 18.9999 13.0001 18.5499 13.0001 17.9999C13.0001 17.4499 12.5501 16.9999 12.0001 16.9999C11.4501 16.9999 11.0001 17.4499 11.0001 17.9999Z" fill="white"/>
</svg>
